<?xml version="1.0" encoding="utf-8"?>
<!DOCTYPE svg PUBLIC "-//W3C//DTD SVG 1.0//EN" "http://www.w3.org/TR/2001/REC-SVG-20010904/DTD/svg10.dtd">
<svg version="1.0" xmlns="http://www.w3.org/2000/svg" width="500px" height="500px" viewBox="0 0 500 500" preserveAspectRatio="xMidYMid meet">
 <g fill="none" stroke="#f9f7f7" stroke-width="0.5">
  <path d="M0 250 l0 -250 250 0 250 0 0 250 0 250 -250 0 -250 0 0 -250z m280.50 129.05 c5.20 -0.25 -4.95 -0.40 -30.50 -0.40 -21.05 0 -37.45 0.10 -36.50 0.30 2.70 0.45 58.25 0.55 67 0.10z m17.45 -9.65 c13.20 -0.05 14.65 -0.15 8.80 -0.45 -9.50 -0.45 -103.75 -0.55 -110 -0.05 -7.05 0.50 30.80 1 61.45 0.75 13.20 -0.05 31.05 -0.20 39.75 -0.25z m14.20 -10.75 c7.25 -0.15 12.20 -0.50 11.95 -0.75 -0.85 -0.85 -72.30 -1.45 -110.85 -0.95 -20.20 0.30 -37.05 0.70 -37.40 0.90 -0.30 0.20 3.25 0.50 7.90 0.65 12.90 0.45 114.25 0.55 128.40 0.15z m27.35 -12.55 c5.10 -0.35 5.15 -0.35 2.50 -0.75 -12.65 -1.75 -175.60 -1.65 -184.60 0.10 l-2.15 0.45 3 0.10 c21.45 0.90 168 0.95 181.25 0.10z m-194.50 -10.60 c0.90 -0.65 2.10 -2.20 2.70 -3.45 0.95 -2.10 1.05 -3.40 1.20 -15.40 l0.20 -13.15 -2.55 0 -2.55 0 0 14.40 c0 11.10 -0.15 14.60 -0.65 15.30 -0.40 0.55 -1.55 1 -3 1.15 -2.10 0.25 -2.35 0.40 -2.35 1.55 0 1.20 0.10 1.20 2.65 1 1.75 -0.15 3.30 -0.65 4.35 -1.40z m37.90 -8.10 c7.35 -3.50 8.70 -15.75 2.30 -21.40 -2.20 -1.90 -6.55 -3.20 -9.35 -2.75 -4.75 0.80 -8.45 3.95 -9.85 8.45 -0.85 2.65 -0.40 8.05 0.90 10.55 3 5.90 9.80 8.10 16 5.15z m133 0.55 c1.15 -0.40 1.60 -0.85 1.60 -1.60 0 -1.05 -0.15 -1.10 -4.50 -0.90 -7.10 0.25 -8.50 -1.35 -8.50 -9.45 0 -8.05 1.50 -9.75 8.25 -9.40 3.85 0.20 4.25 0.15 4.55 -0.75 0.35 -1.20 -0.30 -1.65 -3.30 -2.30 -5.55 -1.20 -11.25 2.15 -13.55 7.95 -0.85 2.20 -0.85 7.15 0 9.65 1.20 3.50 4.45 6.40 8.30 7.40 1.70 0.45 4.70 0.20 7.15 -0.60z m-106.30 -9.30 l-0.15 -9.65 1.65 0 c1.65 0 1.70 0.05 6.60 9.75 l5 9.75 3.40 0 3.40 0 0 -12.50 0 -12.50 -1.75 0 -1.75 0 0 9.50 0 9.50 -1.70 0 c-0.95 0 -1.80 -0.30 -1.90 -0.60 -0.10 -0.35 -2.25 -4.65 -4.80 -9.50 l-4.65 -8.90 -3.45 0 -3.50 0 0 12.55 0 12.50 1.90 -0.15 1.85 -0.15 -0.15 -9.60z m38.90 -1.15 l0 -11 3.25 0 3.25 0 0 -1.50 0 -1.50 -9 0 -9 0 0 1.50 c0 1.45 0 1.45 3.40 1.60 l3.35 0.15 0.15 10.90 0.10 10.85 2.25 0 2.25 0 0 -11z m35.50 9.50 l0 -1.45 -4.35 -0.15 -4.40 -0.15 -0.15 -4.10 -0.15 -4.15 4.30 0 4.25 0 0 -1.50 0 -1.50 -4.25 0 -4.25 0 0 -3.75 0 -3.75 4.50 0 4.50 0 0 -1.50 0 -1.50 -6.75 0 -6.75 0 0 12.50 0 12.50 6.75 0 6.75 0 0 -1.50z m55 -4.25 l0 -5.75 5.75 0 5.75 0 0 5.75 0 5.75 2.50 0 2.50 0 0 -12.50 0 -12.50 -2.50 0 -2.50 0 0 5.25 0 5.25 -5.75 0 -5.75 0 0 -5.25 0 -5.25 -2.25 0 -2.25 0 0 12.50 0 12.50 2.25 0 2.25 0 0 -5.75z m30.25 -39.10 c4.05 -8.70 8 -22.70 9.75 -34.40 1.45 -9.60 1.45 -24.15 0.05 -33.75 -5.30 -35.65 -23.10 -65.80 -51.35 -87.10 -17.80 -13.40 -38.80 -22.10 -60.70 -25.20 -8.70 -1.20 -25.50 -1.20 -34 0 -34.30 4.90 -65.50 23.15 -86.40 50.55 -4.20 5.45 -10.75 15.90 -12.85 20.55 -3.70 7.95 -4.50 9.90 -6.55 15.70 -8.50 23.80 -9.65 48.25 -3.45 73.05 1.75 6.85 4.55 15.25 6.95 20.60 l1.30 2.85 117.95 0 118 0 1.30 -2.85z"/>
  <path d="M172.55 324.20 c-1.30 -1.20 -1.65 -2.05 -2.10 -4.65 -0.25 -1.80 -0.35 -4.50 -0.15 -6 0.70 -5.85 1.90 -7.05 7 -7.05 4.35 0 5.95 1.05 6.70 4.25 0.65 2.75 0.60 7.85 -0.05 10.50 -0.80 3.25 -1.90 3.95 -6.20 4.15 -3.40 0.20 -3.70 0.10 -5.20 -1.20z"/>
 </g>
 <g fill="#ffdd56">
  <path d="M194.25 380.20 c-6.30 -0.35 -12.35 -0.60 -13.35 -0.65 -2.65 -0.05 -2.35 -0.85 0.50 -1.25 10.95 -1.50 130.10 -1.40 137.85 0.15 3.55 0.70 0.90 1.05 -12.55 1.75 -17.25 0.85 -96.55 0.85 -112.45 0z"/>
  <path d="M231.75 371.20 c-0.55 -0.10 -12.80 -0.25 -27.25 -0.40 -26.40 -0.20 -38.70 -0.85 -37.45 -2 1.65 -1.45 110.35 -2.45 142.20 -1.30 18.45 0.65 23.75 1 23.75 1.50 0 0.50 -3.75 0.90 -13.75 1.45 -7.75 0.50 -85.50 1.15 -87.50 0.75z"/>
  <path d="M179.25 359.95 c-12.10 -0.40 -26.80 -1.35 -27.20 -1.70 -0.50 -0.55 0.60 -0.70 7.70 -1.20 18.95 -1.35 37.70 -1.65 90.25 -1.65 52.40 0 71.95 0.35 90.20 1.65 6.65 0.45 7.80 0.65 7.25 1.20 -0.45 0.40 -13.90 1.25 -28.95 1.75 -16.95 0.55 -122.05 0.55 -139.25 -0.05z"/>
  <path d="M174.50 348 c-21.40 -0.50 -36 -1.50 -36 -2.50 0 -2 57 -3.25 132.25 -2.85 51.85 0.30 74.35 0.80 85.25 1.90 10.15 1 7.30 1.65 -13.75 3 -10.35 0.65 -143.45 1 -167.75 0.45z"/>
  <path d="M137.65 338.65 c-1.05 -0.20 -1.15 -0.50 -1.15 -3.10 l0 -2.90 2.30 0.05 c3.75 0.10 3.70 0.25 3.70 -16.30 l0 -14.40 4.05 0 4.05 0 -0.20 14.65 c-0.15 13.60 -0.25 14.75 -1.20 16.90 -1.90 4.05 -6.50 6.10 -11.55 5.10z"/>
  <path d="M172.10 329.60 c-4.70 -1.70 -7.15 -4.95 -8.05 -10.70 -0.85 -5.15 0.40 -10.65 3.05 -13.50 4.45 -4.70 14.75 -5.15 19.60 -0.90 5.05 4.45 5.75 16.20 1.25 21.65 -3.15 3.80 -10.40 5.40 -15.85 3.45z m8.90 -6.85 c1.35 -1.25 2.20 -5.55 1.75 -9 -0.45 -3.90 -2.20 -5.75 -5.35 -5.75 -3.80 0 -5.50 2.40 -5.50 8 0 3.90 0.55 5.50 2.45 7 1.10 0.85 1.85 1.05 3.55 0.85 1.20 -0.10 2.55 -0.60 3.10 -1.10z"/>
  <path d="M204.50 316 l0 -14 4.95 0 5 0 4.10 7.90 c2.25 4.30 4.55 8.65 5.05 9.60 l0.90 1.75 0 -9.65 0 -9.60 3.25 0 3.25 0 0 14 0 14 -4.90 0 -4.90 0 -5.10 -9.85 -5.05 -9.90 0.10 9.75 0.10 9.75 -3.35 0.15 -3.40 0.15 0 -14.05z"/>
  <path d="M129.20 285.15 c-4.15 -9.25 -7.85 -22.45 -9.70 -34.40 -1.55 -10.05 -1.60 -26.50 -0.05 -37 1.35 -9.15 3.30 -17 6.25 -25.25 2.05 -5.80 2.85 -7.75 6.55 -15.70 2.10 -4.65 8.65 -15.10 12.85 -20.55 18.10 -23.75 44.20 -40.80 73.15 -47.95 11.50 -2.80 17.80 -3.50 31.75 -3.50 14 0 20.50 0.75 31.75 3.50 29.40 7.25 56.10 24.95 74.05 49.20 13.15 17.75 21.35 37.80 24.75 60.50 1.50 9.75 1.45 27 0 36.75 -1.80 11.75 -5.80 25.75 -9.80 34.40 l-1.30 2.85 -81 0 -80.95 0 0 -1.25 c0 -1.20 0.10 -1.25 3.45 -1.25 3.70 0 5.05 -0.70 5.05 -2.50 0 -0.55 0.45 -2.20 1.05 -3.70 0.55 -1.50 1.20 -4.30 1.45 -6.15 1.10 -8.55 2.15 -13.55 3.45 -16.15 1.25 -2.50 1.55 -2.75 3.20 -2.90 l1.85 -0.15 0 2.15 c0 1.20 -0.35 2.60 -0.75 3.10 -1.55 2.05 -0.60 3.40 5.10 7.25 4.05 2.70 6.35 2.80 9 0.40 l1.80 -1.70 -1.05 -1.05 c-0.90 -0.90 -1.45 -1.05 -3.30 -0.80 -1.20 0.20 -2.95 0.05 -4 -0.30 -1.75 -0.55 -1.80 -0.65 -1.80 -3.20 0 -2.40 0.15 -2.75 2.25 -4.80 1.25 -1.20 2.25 -2.45 2.25 -2.80 0 -0.35 1.30 -0.70 3.25 -0.95 1.80 -0.15 3.35 -0.55 3.50 -0.80 0.20 -0.25 1.05 -0.45 1.95 -0.45 0.95 0 2.55 -0.30 3.65 -0.70 1.10 -0.40 3.70 -0.85 5.75 -1.05 l3.75 -0.35 0.30 2.25 c0.20 1.25 1 3.60 1.85 5.25 0.80 1.65 1.50 3.20 1.50 3.50 0 0.75 3.35 4.10 4.10 4.10 0.55 0 3.70 2.70 7.55 6.40 l1.95 1.85 -0.35 3.50 c-0.20 2.15 -0.65 4 -1.20 4.75 -0.80 1.10 -1.30 1.25 -4.60 1.40 -2.75 0.10 -3.85 0.35 -4.30 0.95 -2.40 3.20 2.15 4.40 9.25 2.50 1.80 -0.50 2.10 -0.75 2.10 -1.90 0 -0.70 0.55 -2.05 1.20 -3 2.20 -3.05 5.80 -8.40 5.80 -8.60 0 -0.10 -0.75 -1 -1.65 -2 -0.95 -0.95 -2.55 -3.05 -3.60 -4.65 -1.65 -2.45 -2 -3.45 -2.15 -6 -0.20 -3.05 -0.20 -3.10 2.20 -5.85 3.05 -3.45 4.40 -3.65 8.20 -1.10 1.45 0.95 3 1.75 3.50 1.75 0.50 0 2.50 1.55 4.40 3.40 2.50 2.45 4.35 3.80 6.45 4.65 3.30 1.30 8.65 6.20 8.65 7.85 0 0.55 0.35 1.25 0.80 1.65 2.05 1.70 3.70 4.90 3.70 7.15 0 1.25 -0.20 2.30 -0.45 2.30 -0.25 0 -1.15 0.60 -2 1.35 -2.50 2.20 -1.75 4.80 1.10 3.70 0.60 -0.25 2.10 -0.75 3.35 -1.10 2.95 -0.80 3.15 -1.05 2.50 -2.70 -0.30 -0.80 -0.75 -3.50 -1 -6.05 -0.45 -5 -1.40 -7.25 -3.30 -8.15 -0.65 -0.25 -2.40 -2 -3.95 -3.90 -2.10 -2.55 -3.05 -4.20 -3.80 -6.80 -0.55 -1.90 -1.80 -5.25 -2.75 -7.50 -0.90 -2.25 -2.05 -5.35 -2.45 -6.95 -0.40 -1.60 -1.30 -4 -2 -5.40 -0.70 -1.35 -1.25 -3.25 -1.25 -4.25 l0 -1.75 2.75 0 c1.50 0 4.25 0.25 6.10 0.55 3.10 0.50 3.70 0.40 7.15 -0.75 l3.75 -1.25 -4.60 0.25 c-5.55 0.35 -9 -0.50 -13.40 -3.30 -3.85 -2.45 -13.70 -7.95 -17.25 -9.60 -1.50 -0.75 -5.35 -1.80 -8.50 -2.40 -5.15 -1 -6.45 -1.10 -12.75 -0.70 -3.85 0.25 -9.95 0.45 -13.50 0.45 l-6.50 0 -2.15 -1.75 c-1.15 -0.95 -2.10 -2.10 -2.10 -2.55 0 -0.45 -0.45 -1.40 -1.05 -2.15 -0.80 -1 -1.45 -1.30 -3 -1.30 -1.05 0 -2.80 -0.35 -3.90 -0.80 -1.90 -0.75 -2 -0.90 -2.30 -3.45 -0.25 -1.65 -0.15 -3.05 0.20 -3.70 0.50 -0.85 0.45 -1.10 -0.20 -1.35 -0.40 -0.15 -0.75 -0.60 -0.75 -1 0 -0.35 -0.55 -0.80 -1.25 -1 -0.80 -0.20 -1.35 -0.75 -1.55 -1.65 -0.95 -4.10 -1.35 -5 -2.95 -6.50 -0.95 -0.85 -2.50 -1.70 -3.40 -1.90 -1 -0.20 -2.40 -1.20 -3.90 -2.75 l-2.30 -2.45 -2.80 0.35 c-1.85 0.20 -2.85 0.15 -2.85 -0.20 0 -0.60 -3.20 -1.30 -5.25 -1.15 -0.80 0.10 -1.95 0.55 -2.55 1.10 -0.55 0.55 -1.75 0.95 -2.65 0.95 -1.10 0 -2 0.45 -2.95 1.40 -0.75 0.75 -1.95 1.65 -2.70 2 -1.85 0.75 -1.80 1.90 0.10 2.30 1.35 0.25 1.50 0.45 1.50 2.10 0 1.35 -0.35 2.05 -1.25 2.80 -0.70 0.55 -1.60 1.65 -2.05 2.45 -0.40 0.80 -2.25 2.45 -4.10 3.65 -3.85 2.45 -4.85 3.50 -4.30 4.40 0.55 0.90 1.25 4.65 1.55 8.35 0.25 3.60 1.50 6.20 2.25 4.85 0.30 -0.50 1.15 -0.80 2.40 -0.80 1.80 0 2 0.15 2 1.20 0 1.70 0.50 2.80 1.25 2.80 0.35 0 0.75 0.85 0.95 1.95 0.15 1.10 0.85 2.45 1.55 3.10 1.05 1 1.25 1.65 1.25 4.10 0 2.50 0.10 2.85 1 2.85 0.95 0 1.30 0.70 1.60 3.50 0.15 1.05 0.45 1.30 2.15 1.50 l2 0.25 0.15 2.50 c0.10 1.35 0.35 2.60 0.60 2.75 0.20 0.15 0.75 1.10 1.15 2.15 0.45 1 1.15 1.85 1.55 1.85 0.45 0 0.80 0.25 0.80 0.50 0 0.30 0.45 0.50 1 0.50 0.65 0 1.40 0.60 1.90 1.50 0.45 0.80 1.10 1.50 1.45 1.50 0.85 0 1.65 1.65 1.65 3.45 0 1.15 0.25 1.55 0.90 1.55 0.65 0 1.05 0.65 1.50 2.30 0.70 2.50 1.85 22.75 1.40 23.95 -0.20 0.50 -1 0.75 -2.55 0.75 -2.85 0 -4 0.60 -5 2.50 -0.95 1.85 -0.95 1.85 0.25 2.15 0.70 0.15 1 0.70 1 1.55 l0 1.30 -38 0 -38 0 -1.30 -2.85z m173.05 -75.45 c1.85 -0.95 4.65 -2 6.20 -2.35 l2.80 -0.55 -1.75 -0.45 c-6.75 -1.65 -8.45 -1.40 -12.05 1.90 l-1.90 1.70 1.10 0.80 c1.50 1.05 1.80 1 5.60 -1.05z"/>
 </g>
 <g fill="#004aad">
  <path d="M133.50 407 c-0.55 -0.55 -1 -1.65 -1 -2.50 0 -1.25 0.20 -1.50 1.20 -1.50 0.85 0 1.30 0.35 1.50 1.25 0.25 0.90 0.65 1.25 1.50 1.25 1.45 0 1.80 -1.05 1.80 -5.60 0 -3.10 -0.10 -3.35 -1.10 -3.50 -0.85 -0.10 -1.15 -0.50 -1.15 -1.40 0 -1.15 0.20 -1.25 2.25 -1.25 l2.25 0 0.15 5.90 c0.15 5.65 0.10 5.90 -1.10 7.10 -1.60 1.60 -4.80 1.75 -6.30 0.25z"/>
  <path d="M146.75 407 c-6.20 -4.05 -2.75 -14.10 4.60 -13.35 6.20 0.65 8.65 7.95 4.15 12.45 -1.70 1.75 -2.15 1.90 -4.55 1.90 -1.85 0 -3.20 -0.30 -4.20 -1z m6.90 -2.40 c2.45 -2.70 1.95 -6.70 -1 -7.90 -3.50 -1.50 -6.40 0.35 -6.40 4.05 0 3 1.65 4.75 4.50 4.75 1.35 0 2.35 -0.30 2.90 -0.90z"/>
  <path d="M160.60 400.90 c0.20 -8.50 0.30 -8.65 4.80 -4.90 1.65 1.35 3.25 2.50 3.50 2.50 0.30 0 0.60 -1.05 0.70 -2.35 0.15 -2 0.30 -2.40 1.15 -2.40 0.95 0 1 0.40 1.15 7.15 l0.15 7.10 -1.25 0 c-1.15 0 -1.25 -0.20 -1.40 -2.80 -0.15 -2.80 -0.15 -2.80 -3.25 -5.30 l-3.15 -2.50 0 5.30 0 5.30 -1.25 0 -1.30 0 0.15 -7.10z"/>
  <path d="M177.85 407.70 c-0.20 -0.20 -0.35 -2.90 -0.35 -6.05 l0 -5.65 -1.90 0 c-2.30 0 -2.75 -0.30 -2.05 -1.60 0.45 -0.85 1 -0.90 5.60 -0.80 4.85 0.15 5.10 0.20 5.25 1.30 0.15 1 -0.05 1.10 -1.85 1.10 l-2 0 -0.15 5.90 c-0.15 5.45 -0.20 5.85 -1.15 6 -0.60 0.10 -1.20 0 -1.40 -0.20z"/>
  <path d="M186.60 400.90 l0.15 -7.15 4.50 0 c4.30 0 4.50 0.05 4.65 1.15 0.15 1.05 0 1.10 -3.35 1.10 l-3.55 0 0 1.50 0 1.50 3.20 0 c3.35 0 4 0.35 3.50 1.70 -0.25 0.60 -1.05 0.80 -3.50 0.80 l-3.20 0 0 2 0 1.95 3.65 0.15 c3.20 0.15 3.60 0.25 3.60 1.15 0 0.90 -0.40 1 -4.90 1.15 l-4.90 0.15 0.15 -7.15z"/>
  <path d="M200.40 406.40 c-2 -1.90 -2.70 -4.25 -2.15 -7.25 0.40 -2.10 2.95 -4.95 4.90 -5.45 1.85 -0.45 4.55 0.15 5.90 1.25 1 0.80 1.05 1.05 0.50 1.75 -0.60 0.70 -0.80 0.70 -2.10 0.05 -3.40 -1.80 -6.45 0.05 -6.45 3.90 0 4.15 3.40 6.25 6.70 4.10 0.95 -0.65 1.25 -0.65 2.10 -0.05 0.95 0.75 0.95 0.75 -0.15 1.85 -0.90 0.90 -1.85 1.20 -4.30 1.35 -3.05 0.20 -3.25 0.15 -4.95 -1.50z"/>
  <path d="M212.50 401.10 c0 -5.75 0.15 -7.05 0.75 -7.30 1.45 -0.55 2.25 0.25 2.25 2.25 l0 1.95 3 0 3 0 0 -1.95 c0 -2 0.80 -2.80 2.25 -2.25 0.65 0.25 0.75 1.40 0.65 7.15 l-0.15 6.80 -1.25 0 c-1.20 0 -1.25 -0.15 -1.40 -3.60 l-0.15 -3.65 -2.95 0 -2.95 0 -0.15 3.65 c-0.15 3.50 -0.20 3.60 -1.50 3.75 l-1.40 0.15 0 -6.95z"/>
  <path d="M236 402 l0 -6 -2.05 0 c-1.80 0 -2 -0.10 -1.85 -1.10 0.15 -1.10 0.35 -1.15 5.40 -1.15 5.05 0 5.25 0.05 5.40 1.15 0.15 1 -0.05 1.10 -1.85 1.10 l-2.05 0 0 6 0 6 -1.50 0 -1.50 0 0 -6z"/>
  <path d="M245.10 400.90 l0.15 -7.15 4.50 0 c4.30 0 4.50 0.05 4.65 1.15 0.15 1.05 0 1.10 -3.35 1.10 l-3.55 0 0 1.50 0 1.50 3.20 0 c3.35 0 4 0.35 3.50 1.70 -0.25 0.60 -1.05 0.80 -3.50 0.80 l-3.20 0 0 2 0 1.95 3.65 0.15 c3.20 0.15 3.60 0.25 3.60 1.15 0 0.90 -0.40 1 -4.90 1.15 l-4.90 0.15 0.15 -7.15z"/>
  <path d="M258.80 406.25 c-4.15 -4.10 -2.15 -11.50 3.40 -12.50 2.05 -0.40 6.30 0.90 6.30 1.95 0 1.35 -1.05 1.70 -2.85 0.95 -2.15 -0.85 -4.35 -0.45 -5.40 1 -1.35 1.90 -0.75 6.30 0.95 7.45 0.95 0.65 3.80 0.45 5.05 -0.40 1 -0.65 1.40 -0.70 2 -0.20 1.10 0.90 0.95 1.40 -0.85 2.50 -1.10 0.65 -2.55 1 -4.25 1 -2.30 0 -2.80 -0.20 -4.35 -1.75z"/>
  <path d="M271 401.05 c0 -4.15 0.20 -7.10 0.50 -7.30 0.30 -0.15 0.95 -0.15 1.50 0 0.80 0.25 1 0.75 1 2.30 l0 1.95 3 0 3 0 0 -1.95 c0 -1.55 0.20 -2.05 1 -2.30 0.55 -0.15 1.20 -0.15 1.50 0 0.30 0.20 0.50 3.15 0.50 7.30 l0 7 -1.35 -0.15 c-1.35 -0.15 -1.40 -0.25 -1.55 -3.75 l-0.15 -3.65 -2.95 0 -2.95 0 -0.15 3.65 c-0.15 3.50 -0.20 3.60 -1.50 3.75 l-1.40 0.15 0 -7z"/>
  <path d="M285.50 401.10 c0 -9.05 0.35 -9.25 7.15 -3.55 l1.85 1.55 0 -2.55 c0 -2.80 0.85 -3.70 2.25 -2.55 0.65 0.55 0.75 1.85 0.65 7.20 l-0.15 6.55 -1.35 0.15 c-1.40 0.15 -1.40 0.15 -1.45 -2.75 l0 -2.90 -2.95 -2.40 -2.95 -2.35 -0.15 5.10 -0.15 5.15 -1.35 0.15 -1.40 0.15 0 -6.95z"/>
  <path d="M302.75 407 c-5.65 -3.70 -3.55 -12.45 3.15 -13.35 7 -0.95 10.70 8.05 5.35 12.80 -1.50 1.30 -2.20 1.55 -4.40 1.55 -1.75 0 -3.10 -0.35 -4.10 -1z m7.35 -3.05 c2.05 -2.75 0.95 -6.60 -2.10 -7.50 -4.75 -1.45 -7.90 4.20 -4.40 7.90 1.60 1.70 5.10 1.50 6.50 -0.40z"/>
  <path d="M316.60 400.90 c0.15 -6.75 0.20 -7.15 1.15 -7.15 0.95 0 1 0.40 1.15 5.85 l0.15 5.85 3.10 0.15 c2.70 0.15 3.10 0.25 3.10 1.15 0 0.90 -0.40 1 -4.40 1.15 l-4.40 0.15 0.15 -7.15z"/>
  <path d="M329.20 406.40 c-6.35 -5.90 0.70 -16.10 8.25 -11.90 2.35 1.35 3.55 3.50 3.55 6.30 0 4.55 -2.75 7.20 -7.40 7.20 -2.25 0 -2.85 -0.20 -4.40 -1.60z m7.80 -1.80 c0.75 -0.60 1.20 -1.65 1.35 -3.15 0.20 -1.90 0.05 -2.50 -0.90 -3.65 -1.80 -2 -4.35 -2.25 -6.35 -0.55 -1.35 1.15 -1.60 1.65 -1.60 3.55 0 1.70 0.30 2.55 1.25 3.45 1.50 1.55 4.60 1.70 6.25 0.35z"/>
  <path d="M345.70 407 c-1.90 -1.25 -2.80 -3.15 -2.80 -6.15 -0.10 -4.45 3.75 -7.75 8.45 -7.20 2.55 0.25 3.45 0.90 2.95 2.10 -0.25 0.70 -0.75 0.80 -2.70 0.50 -2 -0.25 -2.60 -0.15 -3.80 0.80 -1.90 1.50 -2.45 3.10 -1.80 5.50 0.55 2.05 1.25 2.60 3.85 3.10 1.65 0.30 2.15 -0.20 2.15 -2.20 0 -0.75 -0.35 -0.95 -1.80 -0.95 -1.55 0 -1.75 -0.15 -1.60 -1.10 0.15 -1.05 0.45 -1.15 2.90 -1.15 l2.75 0 0.15 3.45 c0.10 2.45 -0.05 3.60 -0.50 3.85 -1.30 0.85 -6.60 0.50 -8.20 -0.55z"/>
  <path d="M360.85 407.65 c-0.20 -0.15 -0.35 -1.70 -0.35 -3.35 0 -2.75 -0.25 -3.40 -2.25 -6.50 -1.90 -2.90 -2.15 -3.55 -1.50 -3.90 1.05 -0.65 2.30 0.20 3.75 2.55 0.70 1.15 1.40 2.05 1.60 2.05 0.20 0 1.05 -1 1.85 -2.20 1.60 -2.35 2.90 -3.15 3.70 -2.35 0.35 0.35 -0.25 1.70 -1.80 4.05 -2.20 3.25 -2.35 3.70 -2.35 6.75 0 3.05 -0.05 3.25 -1.15 3.25 -0.65 0 -1.35 -0.15 -1.50 -0.35z"/>
  <path d="M307.25 330.05 c-3.85 -1 -7.10 -3.90 -8.30 -7.40 -0.40 -1.10 -0.70 -3.85 -0.70 -6.65 0.05 -3.90 0.25 -5.15 1.20 -7.10 2.90 -5.95 9.35 -8.55 16.55 -6.70 1.80 0.45 3.45 1.05 3.70 1.30 0.25 0.25 0 1.55 -0.70 3.20 -0.60 1.55 -1.15 2.80 -1.20 2.80 0 0 -0.95 -0.35 -2.05 -0.75 -6.25 -2.25 -9.75 0.35 -9.75 7.25 0 3.50 0.90 6 2.55 7.20 1.45 1 5.15 1.05 7.95 0.05 1.15 -0.40 2.20 -0.75 2.30 -0.75 0.10 0 0.20 1.45 0.20 3.20 0 3.15 0 3.20 -1.60 3.80 -2.10 0.75 -8.20 1.10 -10.15 0.55z"/>
  <path d="M242.40 319.15 l-0.15 -10.90 -3.35 -0.15 -3.40 -0.15 0 -2.95 0 -3 10.40 0 c5.75 0 10.55 0.10 10.65 0.20 0.10 0.10 0.10 1.45 0.05 3 l-0.20 2.80 -3.20 0 -3.20 0 0 11 0 11 -3.75 0 -3.75 0 -0.10 -10.85z"/>
  <path d="M269 316 l0 -14 8.25 0 8.25 0 0 3 0 3 -4.50 0 -4.50 0 0 2.25 0 2.25 4.25 0 4.25 0 0 3 0 3 -4.30 0 -4.25 0 0.15 2.65 0.15 2.60 4.40 0.15 4.35 0.15 0 2.95 0 3 -8.25 0 -8.25 0 0 -14z"/>
  <path d="M333 329.90 c0 -0.10 -0.05 -6.35 -0.05 -13.90 l0 -13.75 3.75 -0.15 3.80 -0.15 0 5.30 0 5.25 4.25 0 4.25 0 0 -5.25 0 -5.25 4 0 4 0 0 14 0 14 -4 0 -4 0 0 -5.75 0 -5.75 -4.25 0 -4.25 0 0 5.75 0 5.75 -3.75 0 c-2.05 0 -3.75 -0.05 -3.75 -0.10z"/>
  <path d="M205 287.55 c0 -0.30 -0.60 -0.80 -1.35 -1.15 -0.95 -0.45 -1.45 -1.10 -1.55 -2.05 -0.10 -0.75 0.05 -1.35 0.35 -1.35 0.30 0 0.85 -0.65 1.30 -1.50 1 -1.90 2.30 -2.60 5.05 -2.65 1.25 0 2.35 -0.20 2.45 -0.40 0.50 -0.75 -0.80 -19.25 -1.45 -21.45 -0.60 -2 -0.70 -2.15 -1.05 -1.05 -0.50 1.65 -1.25 0.40 -1.25 -2.10 0 -2.15 -0.75 -3.85 -1.65 -3.85 -0.35 0 -1 -0.70 -1.50 -1.55 -0.95 -1.75 -1.80 -1.70 -0.85 0.05 0.30 0.60 0.45 1.20 0.30 1.35 -0.15 0.15 -0.45 -0.15 -0.60 -0.65 -0.20 -0.50 -0.75 -1.45 -1.25 -2.10 -0.75 -1 -0.90 -1.05 -1.05 -0.25 -0.10 0.60 -0.60 -0.10 -1.35 -1.80 -0.65 -1.50 -1.50 -3.05 -1.90 -3.45 -0.55 -0.55 -0.65 -1.35 -0.45 -2.65 0.15 -1.05 0.10 -2 -0.15 -2.15 -0.75 -0.50 -1.15 3.45 -0.60 5.55 0.45 1.75 0.45 1.80 -0.25 0.90 -0.40 -0.55 -1.10 -2.25 -1.55 -3.75 -0.85 -3.05 -1.65 -4.30 -1.65 -2.65 0 0.60 0.25 1.25 0.50 1.40 0.30 0.15 0.50 0.60 0.50 0.90 -0.05 1.15 -3.85 -3.60 -4.40 -5.55 -0.50 -1.60 -0.45 -2.30 0.15 -3.75 0.95 -2.30 0.95 -3.05 0 -2.65 -0.40 0.15 -0.75 0.05 -0.75 -0.25 0 -0.25 0.35 -0.60 0.75 -0.75 0.65 -0.25 0.55 -0.55 -0.45 -1.55 -0.70 -0.70 -1.45 -2.20 -1.75 -3.30 -0.35 -1.70 -0.45 -1.85 -0.50 -0.70 -0.05 1.85 -1.05 1.25 -1.05 -0.65 0 -0.80 -0.25 -1.60 -0.55 -1.80 -0.30 -0.15 -0.45 -0.85 -0.30 -1.50 0.25 -1.30 -0.50 -1.65 -0.95 -0.45 -0.20 0.45 -0.95 0.75 -1.95 0.75 -2.30 0 -3.40 -1.85 -3.50 -5.75 -0.05 -1.65 -0.35 -3.55 -0.60 -4.25 -0.30 -0.70 -0.40 -1.50 -0.30 -1.85 0.10 -0.30 -0.15 -1.25 -0.55 -2.10 -1.55 -2.95 -0.75 -4.20 4.80 -7.70 1.55 -1 3.20 -2.45 3.60 -3.30 0.45 -0.80 1.35 -1.90 2.05 -2.45 1.60 -1.30 1.60 -1.50 -0.35 -2 -2.55 -0.65 -2.55 -4.15 0 -5.20 0.75 -0.35 1.95 -1.25 2.70 -2 0.90 -0.95 1.85 -1.40 2.90 -1.40 1 0 2.20 -0.50 3.10 -1.25 1.30 -1.10 1.80 -1.20 4.80 -1 1.85 0.15 4.05 0.25 4.95 0.25 0.85 0 1.70 0.20 1.90 0.50 0.15 0.25 1.25 0.50 2.35 0.50 1.80 0 2.35 0.30 4.35 2.35 1.60 1.70 2.60 2.35 3.40 2.25 0.65 -0.10 1.15 0.05 1.15 0.35 0 0.30 0.25 0.55 0.60 0.55 0.30 0 1.40 0.85 2.45 1.90 1.35 1.45 1.95 2.50 2.20 4.20 0.55 3.50 1.25 4.05 4.25 3.20 l1.25 -0.35 -1.20 1.05 c-1.05 0.90 -1.10 1.15 -0.50 1.55 0.35 0.25 0.85 0.45 1 0.45 0.85 0 0.80 1.55 -0.10 3.20 -0.90 1.75 -0.90 1.80 0 2.30 0.55 0.25 1.35 0.50 1.80 0.50 0.45 0 0.70 0.20 0.55 0.45 -0.40 0.60 3.15 2.65 4 2.35 0.80 -0.30 3.20 2.40 3.20 3.60 0 0.45 0.95 1.65 2.10 2.60 1.90 1.55 2.45 1.75 5.65 1.90 1.90 0.10 6.90 -0.15 11 -0.55 10.55 -1 20.60 0.15 26.75 3.05 3.50 1.65 13.35 7.15 17.25 9.60 4.35 2.80 7.60 3.60 12.25 3.05 5.70 -0.65 7.65 -1.95 9.05 -5.95 0.85 -2.55 -0.25 -5.65 -3.10 -8.80 -1.30 -1.40 -3.15 -3 -4.05 -3.50 -2.50 -1.35 -6.35 -0.75 -11.20 1.75 -4.10 2.05 -6.80 2.45 -8.85 1.35 -0.60 -0.35 -1.40 -0.65 -1.80 -0.70 -1.75 -0.30 -1.50 -1.20 1.25 -3.85 3.60 -3.50 7.40 -5.25 9.75 -4.40 0.85 0.30 1.75 0.40 2 0.30 0.20 -0.15 1.25 0.05 2.25 0.50 1 0.40 2.10 0.75 2.50 0.75 1.60 0 6.40 2.25 8.70 4.05 4.75 3.75 6.70 8.55 5.60 13.50 -1.20 5.15 -3.75 7.45 -10.60 9.45 -3.10 0.95 -4.40 1.05 -7.50 0.80 -7.45 -0.70 -8 -0.75 -8 -0.50 0 0.15 0.55 1.35 1.25 2.70 0.70 1.40 1.60 3.80 2 5.40 0.40 1.60 1.55 4.70 2.45 6.95 0.95 2.25 2.20 5.60 2.75 7.50 0.75 2.60 1.70 4.25 3.80 6.80 1.55 1.90 3.30 3.65 3.95 3.90 1.95 0.90 2.85 3.15 3.35 8.20 0.25 2.90 0.85 5.65 1.45 7.05 0.95 2.05 1 2.40 0.30 3.15 -0.40 0.45 -1.80 1.10 -3.15 1.45 -1.30 0.40 -2.90 0.90 -3.55 1.15 -1.50 0.60 -3.95 0.60 -5.10 -0.05 -0.75 -0.40 -0.90 -0.95 -0.70 -2.85 0.15 -1.85 0.55 -2.70 1.85 -3.85 0.85 -0.85 1.75 -1.45 2 -1.40 1.35 0.40 -1.30 -4.65 -3.35 -6.35 -0.45 -0.40 -0.80 -1.10 -0.80 -1.65 0 -1.65 -5.35 -6.55 -8.65 -7.85 -2.10 -0.85 -3.95 -2.20 -6.45 -4.65 -1.90 -1.85 -3.90 -3.40 -4.40 -3.40 -0.50 0 -2.05 -0.80 -3.45 -1.70 l-2.60 -1.75 -2.10 2.30 c-2.75 2.95 -3 3.45 -2.65 5.25 0.35 1.85 3.45 6.55 5.95 9 1.05 1.10 1.85 2.40 1.85 3 0 1 -2.35 4.90 -6.30 10.35 -0.65 0.95 -1.20 2.30 -1.20 3.05 0 1.55 -0.15 1.65 -6.75 2.70 -3.35 0.55 -4.35 0.55 -6.10 -0.05 -3.05 -1.05 -3.35 -1.60 -2.25 -4.45 0.70 -1.95 1.15 -2.50 2.10 -2.60 0.70 -0.10 1.75 -0.40 2.40 -0.70 0.85 -0.45 1.40 -0.40 2.40 0.15 1.20 0.65 1.40 0.60 2.50 -0.70 0.65 -0.80 1.20 -2.05 1.20 -2.85 0 -0.75 0.10 -1.70 0.25 -2.10 0.15 -0.35 -0.55 -1.50 -1.60 -2.50 -3.70 -3.60 -7 -6.40 -7.55 -6.40 -0.75 0 -4.10 -3.35 -4.10 -4.10 0 -0.30 -0.70 -1.85 -1.50 -3.50 -0.85 -1.65 -1.65 -3.95 -1.80 -5.15 l-0.30 -2.10 -2.35 0.25 c-1.25 0.15 -3.50 0.65 -4.95 1.15 -1.45 0.50 -2.95 0.80 -3.35 0.60 -0.45 -0.15 -1.05 -0.05 -1.40 0.25 -0.35 0.30 -2 0.70 -3.75 0.90 -1.80 0.20 -3.10 0.55 -3.10 0.90 0 0.35 -1 1.60 -2.25 2.80 -3.75 3.70 -2.85 5.30 2.80 5.05 2.40 -0.10 3.05 0.10 4.15 1.10 1.80 1.70 1.65 3.15 -0.65 5.40 -1.90 1.90 -2 1.95 -5.50 1.95 -3.45 0 -3.70 -0.10 -7.20 -2.45 -2 -1.35 -4.05 -2.90 -4.60 -3.50 -1.15 -1.35 -1.20 -4.55 0 -6.40 0.45 -0.65 0.70 -1.50 0.60 -1.80 -0.30 -0.95 -3.35 4.75 -3.35 6.40 -0.05 0.85 -0.35 3.10 -0.80 5 -0.40 1.95 -0.95 5.15 -1.20 7.15 -0.25 2.05 -0.90 4.90 -1.50 6.40 -0.55 1.50 -1 3.10 -1 3.60 0 1.60 -0.85 2.15 -4.05 2.80 -2.40 0.50 -3.30 0.55 -3.60 0.10 -0.30 -0.40 -0.50 -0.40 -0.70 0.10 -0.25 0.70 -4.15 0.85 -4.15 0.15z m-12.45 -55.40 c-0.50 -0.85 -0.50 -0.85 -0.55 0.10 0 0.55 0.20 1.55 0.40 2.25 l0.35 1.25 0.15 -1.35 c0.10 -0.75 -0.05 -1.75 -0.35 -2.25z m-2.20 -1 c-0.15 -0.50 -0.25 -0.10 -0.25 0.85 0 0.95 0.10 1.35 0.25 0.90 0.10 -0.50 0.10 -1.30 0 -1.75z m42.65 -26.90 c0 -0.20 -3.95 -2.25 -4.35 -2.25 -0.10 0 -0.15 0.20 -0.15 0.45 0 0.25 0.85 0.80 1.90 1.20 2 0.85 2.60 1 2.60 0.60z"/>
  <path d="M176 208.55 c0 -0.30 -0.40 -0.55 -0.85 -0.60 -0.50 0 -0.65 -0.15 -0.30 -0.25 0.90 -0.40 2.45 0.55 1.70 1 -0.30 0.20 -0.55 0.10 -0.55 -0.15z"/>
 </g>
</svg>